simulation
nRows=69
nColumns=15
endheader
time  TH_x TH_y TH_z SC_y  SC_z  SC_x  AC_y  AC_z  AC_x  GH_y  GH_z  GH_yy  EL_x  PS_y
0.213049  0.000000  0.000000  0.000000  -39.621505  6.253863  13.308327  42.364638  1.976517  -9.993001  -12.714039  9.266170  16.560075  54.605814  0.000000
0.215748  0.000000  0.000000  0.000000  -39.601363  6.288875  13.283117  42.386656  2.043273  -9.905787  -13.365766  9.456325  17.507230  55.011137  0.000000
0.218447  0.000000  0.000000  0.000000  -39.577793  6.322687  13.252528  42.408929  2.114782  -9.815047  -13.976295  9.656012  18.422894  55.406010  0.000000
0.222066  0.000000  0.000000  0.000000  -39.542178  6.365360  13.203686  42.439603  2.218121  -9.688525  -14.728696  9.938882  19.600105  55.919500  0.000000
0.225685  0.000000  0.000000  0.000000  -39.503548  6.404084  13.146652  42.471725  2.329918  -9.557379  -15.403680  10.239257  20.718234  56.415405  0.000000
0.226770  0.000000  0.000000  0.000000  -39.491616  6.414792  13.128074  42.481720  2.365079  -9.517299  -15.590851  10.332799  21.041954  56.560856  0.000000
0.227856  0.000000  0.000000  0.000000  -39.479589  6.425045  13.108868  42.491892  2.400967  -9.476936  -15.770954  10.427918  21.360262  56.704813  0.000000
0.228235  0.000000  0.000000  0.000000  -39.475377  6.428512  13.102024  42.495482  2.413659  -9.462789  -15.832143  10.461482  21.470070  56.754700  0.000000
0.228614  0.000000  0.000000  0.000000  -39.471160  6.431921  13.095107  42.499093  2.426438  -9.448612  -15.892479  10.495239  21.579229  56.804408  0.000000
0.228992  0.000000  0.000000  0.000000  -39.466939  6.435270  13.088120  42.502725  2.439303  -9.434405  -15.951960  10.529187  21.687737  56.853938  0.000000
0.229371  0.000000  0.000000  0.000000  -39.462716  6.438559  13.081064  42.506377  2.452254  -9.420169  -16.010588  10.563328  21.795595  56.903291  0.000000
0.229750  0.000000  0.000000  0.000000  -39.458492  6.441787  13.073938  42.510052  2.465290  -9.405907  -16.068361  10.597661  21.902801  56.952469  0.000000
0.230337  0.000000  0.000000  0.000000  -39.451948  6.446667  13.062765  42.515790  2.485653  -9.383763  -16.156177  10.651231  22.067599  57.028313  0.000000
0.230924  0.000000  0.000000  0.000000  -39.445410  6.451396  13.051431  42.521585  2.506217  -9.361564  -16.241936  10.705259  22.230819  57.103741  0.000000
0.231511  0.000000  0.000000  0.000000  -39.438881  6.455974  13.039941  42.527439  2.526980  -9.339316  -16.325638  10.759745  22.392456  57.178755  0.000000
0.232098  0.000000  0.000000  0.000000  -39.432365  6.460396  13.028297  42.533352  2.547940  -9.317025  -16.407284  10.814687  22.552510  57.253359  0.000000
0.232685  0.000000  0.000000  0.000000  -39.425868  6.464662  13.016504  42.539325  2.569094  -9.294696  -16.486881  10.870085  22.710988  57.327555  0.000000
0.233336  0.000000  0.000000  0.000000  -39.418683  6.469212  13.003243  42.546024  2.592804  -9.269864  -16.572862  10.932121  22.885096  57.409456  0.000000
0.233988  0.000000  0.000000  0.000000  -39.411532  6.473563  12.989809  42.552793  2.616748  -9.244993  -16.656346  10.994717  23.057288  57.490864  0.000000
0.234640  0.000000  0.000000  0.000000  -39.404421  6.477713  12.976209  42.559631  2.640920  -9.220090  -16.737346  11.057871  23.227576  57.571784  0.000000
0.235291  0.000000  0.000000  0.000000  -39.397355  6.481661  12.962447  42.566536  2.665318  -9.195160  -16.815875  11.121581  23.395969  57.652218  0.000000
0.235943  0.000000  0.000000  0.000000  -39.390339  6.485403  12.948529  42.573511  2.689938  -9.170209  -16.891942  11.185846  23.562470  57.732173  0.000000
0.236594  0.000000  0.000000  0.000000  -39.383378  6.488939  12.934458  42.580556  2.714776  -9.145244  -16.965554  11.250662  23.727081  57.811653  0.000000
0.237424  0.000000  0.000000  0.000000  -39.374595  6.493141  12.916319  42.589634  2.746727  -9.113433  -17.055787  11.334027  23.934046  57.912220  0.000000
0.238255  0.000000  0.000000  0.000000  -39.365914  6.497003  12.897948  42.598827  2.779017  -9.081623  -17.142077  11.418278  24.137964  58.012032  0.000000
0.239085  0.000000  0.000000  0.000000  -39.357345  6.500522  12.879357  42.608133  2.811639  -9.049826  -17.224460  11.503411  24.338861  58.111096  0.000000
0.239915  0.000000  0.000000  0.000000  -39.348895  6.503696  12.860555  42.617548  2.844583  -9.018053  -17.302976  11.589419  24.536771  58.209423  0.000000
0.240745  0.000000  0.000000  0.000000  -39.340571  6.506524  12.841553  42.627067  2.877841  -8.986311  -17.377668  11.676298  24.731730  58.307020  0.000000
0.241716  0.000000  0.000000  0.000000  -39.330997  6.509394  12.819072  42.638336  2.917151  -8.949218  -17.460282  11.779077  24.956191  58.420329  0.000000
0.242688  0.000000  0.000000  0.000000  -39.321614  6.511788  12.796343  42.649742  2.956863  -8.912202  -17.537775  11.883030  25.176687  58.532664  0.000000
0.243659  0.000000  0.000000  0.000000  -39.312428  6.513707  12.773378  42.661284  2.996963  -8.875281  -17.610205  11.988145  25.393253  58.644038  0.000000
0.244631  0.000000  0.000000  0.000000  -39.303445  6.515154  12.750189  42.672957  3.037436  -8.838471  -17.677641  12.094411  25.605933  58.754464  0.000000
0.245602  0.000000  0.000000  0.000000  -39.294672  6.516131  12.726792  42.684755  3.078267  -8.801787  -17.740161  12.201816  25.814785  58.863954  0.000000
0.246431  0.000000  0.000000  0.000000  -39.287358  6.516595  12.706676  42.694912  3.113369  -8.770601  -17.789680  12.294335  25.989987  58.956631  0.000000
0.247260  0.000000  0.000000  0.000000  -39.280204  6.516722  12.686427  42.705147  3.148710  -8.739523  -17.835743  12.387666  26.162498  59.048643  0.000000
0.248089  0.000000  0.000000  0.000000  -39.273211  6.516516  12.666052  42.715457  3.184280  -8.708560  -17.878401  12.481802  26.332356  59.139999  0.000000
0.248918  0.000000  0.000000  0.000000  -39.266382  6.515979  12.645556  42.725838  3.220069  -8.677721  -17.917703  12.576734  26.499594  59.230704  0.000000
0.250173  0.000000  0.000000  0.000000  -39.256352  6.514549  12.614306  42.741686  3.274656  -8.631274  -17.970968  12.721984  26.747950  59.366841  0.000000
0.251209  0.000000  0.000000  0.000000  -39.248358  6.512816  12.588329  42.754876  3.320051  -8.593178  -18.009354  12.843213  26.948568  59.478113  0.000000
0.252245  0.000000  0.000000  0.000000  -39.240621  6.510596  12.562201  42.768152  3.365730  -8.555314  -18.042822  12.965632  27.145321  59.588407  0.000000
0.253281  0.000000  0.000000  0.000000  -39.233141  6.507899  12.535936  42.781504  3.411672  -8.517691  -18.071492  13.089223  27.338300  59.697736  0.000000
0.254316  0.000000  0.000000  0.000000  -39.225917  6.504739  12.509544  42.794920  3.457859  -8.480318  -18.095486  13.213965  27.527594  59.806110  0.000000
0.255484  0.000000  0.000000  0.000000  -39.218077  6.500634  12.479648  42.810112  3.510203  -8.438490  -18.117070  13.355969  27.736702  59.927168  0.000000
0.256653  0.000000  0.000000  0.000000  -39.210554  6.495975  12.449618  42.825358  3.562804  -8.397000  -18.133026  13.499386  27.941354  60.047040  0.000000
0.257821  0.000000  0.000000  0.000000  -39.203343  6.490786  12.419468  42.840645  3.615635  -8.355858  -18.143531  13.644185  28.141679  60.165742  0.000000
0.258989  0.000000  0.000000  0.000000  -39.196435  6.485090  12.389209  42.855958  3.668666  -8.315071  -18.148765  13.790334  28.337804  60.283286  0.000000
0.260157  0.000000  0.000000  0.000000  -39.189825  6.478912  12.358854  42.871280  3.721870  -8.274643  -18.148911  13.937802  28.529865  60.399686  0.000000
0.261786  0.000000  0.000000  0.000000  -39.181081  6.469537  12.316363  42.892640  3.796339  -8.218838  -18.140961  14.145706  28.791311  60.560201  0.000000
0.263416  0.000000  0.000000  0.000000  -39.172871  6.459349  12.273736  42.913940  3.871016  -8.163736  -18.123958  14.356031  29.045479  60.718537  0.000000
0.265046  0.000000  0.000000  0.000000  -39.165168  6.448428  12.230995  42.935139  3.945828  -8.109334  -18.098388  14.568687  29.292719  60.874719  0.000000
0.266675  0.000000  0.000000  0.000000  -39.157937  6.436857  12.188160  42.956198  4.020704  -8.055625  -18.064736  14.783580  29.533379  61.028766  0.000000
0.268305  0.000000  0.000000  0.000000  -39.151149  6.424722  12.145249  42.977074  4.095576  -8.002589  -18.023486  15.000616  29.767819  61.180699  0.000000
0.270374  0.000000  0.000000  0.000000  -39.143110  6.408655  12.090679  43.003240  4.190526  -7.936168  -17.960988  15.279133  30.057162  61.370596  0.000000
0.272444  0.000000  0.000000  0.000000  -39.135657  6.392023  12.036039  43.028950  4.285222  -7.870723  -17.888043  15.560742  30.337812  61.557131  0.000000
0.274513  0.000000  0.000000  0.000000  -39.128723  6.375010  11.981341  43.054132  4.379548  -7.806183  -17.805532  15.845247  30.610412  61.740319  0.000000
0.276582  0.000000  0.000000  0.000000  -39.122243  6.357808  11.926594  43.078712  4.473393  -7.742462  -17.714333  16.132447  30.875609  61.920167  0.000000
0.278652  0.000000  0.000000  0.000000  -39.116154  6.340610  11.871803  43.102615  4.566652  -7.679456  -17.615308  16.422136  31.134047  62.096680  0.000000
0.281198  0.000000  0.000000  0.000000  -39.109117  6.319723  11.804311  43.131007  4.680485  -7.602751  -17.483842  16.781756  31.443650  62.309312  0.000000
0.283745  0.000000  0.000000  0.000000  -39.102486  6.299481  11.736728  43.158156  4.793140  -7.526746  -17.343171  17.144458  31.744997  62.516874  0.000000
0.286291  0.000000  0.000000  0.000000  -39.096172  6.280249  11.669021  43.183956  4.904488  -7.451192  -17.194698  17.509835  32.039141  62.719338  0.000000
0.288838  0.000000  0.000000  0.000000  -39.090110  6.262370  11.601143  43.208308  5.014429  -7.375822  -17.039686  17.877492  32.327045  62.916670  0.000000
0.291384  0.000000  0.000000  0.000000  -39.084255  6.246164  11.533035  43.231131  5.122898  -7.300359  -16.879265  18.247041  32.609587  63.108826  0.000000
0.295254  0.000000  0.000000  0.000000  -39.075728  6.225386  11.428945  43.262746  5.284847  -7.184889  -16.627351  18.811327  33.030369  63.390789  0.000000
0.299123  0.000000  0.000000  0.000000  -39.067679  6.210063  11.323879  43.290524  5.443363  -7.067575  -16.368331  19.377804  33.443062  63.660528  0.000000
0.302992  0.000000  0.000000  0.000000  -39.060272  6.200962  11.217519  43.314372  5.598635  -6.947442  -16.104749  19.945229  33.849802  63.917881  0.000000
0.306862  0.000000  0.000000  0.000000  -39.053809  6.198667  11.109526  43.334286  5.751006  -6.823551  -15.838604  20.512433  34.252360  64.162707  0.000000
0.310731  0.000000  0.000000  0.000000  -39.048712  6.203575  10.999550  43.350352  5.900959  -6.695040  -15.571428  21.078340  34.652175  64.394902  0.000000
0.314682  0.000000  0.000000  0.000000  -39.045470  6.216226  10.884855  43.362961  6.052200  -6.558244  -15.298737  21.653850  35.058817  64.618909  0.000000
0.318633  0.000000  0.000000  0.000000  -39.044865  6.236618  10.767411  43.371988  6.202257  -6.415109  -15.027070  22.226069  35.464816  64.829690  0.000000
